<?xml version="1.0" standalone="no"?>
<svg width="64" height="64" viewBox="0 0 512 384" version="1.1" xmlns="http://www.w3.org/2000/svg">
  <path d="M344 290c41 -27 76 -66 104 -100c-51 -54 -124 -135 -224 -135c-36 0 -65 8 -92 22l-77 -77l-23 23l71 71c-36 25 -68 61 -103 98c78 85 142 137 224 137c34 0 64 -9 92 -23l77 78l23 -23zM134 192c0 -19 6 -36 16 -51l27 27c-4 7 -5 15 -5 24c0 29 23 53 52 53h8 c-5 -6 -8 -13 -8 -21c0 -3 0 -5 1 -8l51 50c-15 11 -33 17 -52 17c-49 0 -90 -41 -90 -91zM224 101c49 0 90 41 90 91c0 19 -6 37 -16 52l-50 -51c3 -1 5 -1 8 -1c8 0 14 3 20 7v-7c0 -29 -23 -53 -52 -53c-9 0 -17 2 -24 6l-28 -27c15 -11 33 -17 52 -17z" transform="matrix(1,0,0,-1,0,384)"/>
</svg>